<?xml version="1.0" encoding="UTF-8" standalone="no"?>
<!-- Created with Inkscape (http://www.inkscape.org/) -->

<svg
   version="1.1"
   id="svg2"
   width="98.67366"
   height="114.87962"
   viewBox="0 0 98.673661 114.87961"
   xmlns="http://www.w3.org/2000/svg"
   xmlns:svg="http://www.w3.org/2000/svg">
  <defs
     id="defs6" />
  <g
     id="g10"
     transform="matrix(1.3333333,0,0,-1.3333333,-354.02985,497.46296)">
    <g
       id="g12"
       transform="scale(0.1)">
      <path
         d="m 3260.86,3690.25 c 37.61,-5.42 61.01,-37.92 61.15,-84.85 0.18,-115.59 -104.97,-214.83 -123.69,-231.67 -68.19,-3.27 -115.53,-36.66 -137.83,-70.6 -23.08,-34.88 -24.18,-75.2 -2.82,-105.25 8.48,-12.02 18.82,-22.06 30.79,-30.02 -8.99,-29.74 -18.97,-91 31.92,-133.23 8.44,-7 18.6,-12.32 29.85,-16.32 -45.93,-46.32 -110,-60.9 -155.43,-58.34 -90.07,4.96 -116.15,49.49 -117.39,51.87 -5.14,9.58 -17.11,13.33 -26.88,8.29 -9.78,-5.03 -13.62,-17.09 -8.59,-26.86 1.15,-2.19 22.91,-42.4 88.18,-62.48 -12.55,-16.07 -27.59,-21.84 -52.01,-21.34 -44.15,0.87 -88.44,22.69 -124.73,61.51 -35.93,38.39 -59.86,90.48 -58.15,126.54 l 0.22,3.2 c 2.58,37.01 18.36,50.64 28.54,55.65 9.4,-31.83 25.77,-58.83 40.5,-76.1 7.13,-8.41 19.8,-9.39 28.22,-2.27 8.41,7.14 9.39,19.8 2.16,28.22 -3.52,4.16 -85.76,102.91 -0.06,192.07 66.47,69.26 24.34,126.42 -6.44,168.16 -26.56,36.03 -40.78,57.77 -25.15,83.75 14.87,24.82 46.46,33.65 80.56,22.45 47.24,-15.51 97.48,-69.93 106.38,-173.9 l 0.01,-1.3 c 1.98,-23.4 1.78,-49.25 -0.9,-77.73 -1.28,-11.24 6.98,-20.74 18.03,-21.81 10.95,-1.06 20.74,6.98 21.8,18.03 0.43,4.79 0.86,9.47 1.18,14.05 1.43,20.55 1.46,39.7 0.52,57.81 32.12,19.31 119.46,81.8 157.01,209.3 21.36,72.09 73.55,98.83 113.05,93.17 z m 55.48,-316.11 c 15.78,-15.14 23.22,-39.31 22.17,-71.82 -1.42,-40.39 -55.62,-88.95 -120.93,-108.46 -19.97,-6.02 -61.59,-14.96 -95.77,0.85 l -0.48,0.34 -0.68,0.25 c -11.36,5.4 -21.81,13.64 -30.4,25.67 -11.85,16.87 -10.53,38.73 3.59,60.1 23.87,36.13 83.2,64.88 162.02,47.96 10.76,-2.35 21.47,4.52 23.82,15.28 2.33,10.57 -4.52,21.47 -15.39,23.73 -4.14,0.99 -8.21,1.57 -12.28,2.26 6.27,6.47 13.01,14.02 20.11,22.35 10.57,-0.83 29.66,-4.47 44.22,-18.51 z m 30.46,-242.1 c -13.2,-32.56 -55.81,-62.98 -106.01,-75.62 -39.7,-10.07 -76.04,-6.54 -94.9,9.01 -30.61,25.48 -26.43,63.89 -20.68,85.95 30.29,-8.33 65.85,-7.29 103.83,4.09 41.26,12.47 84.3,37.44 113.57,69.08 10.23,-20.05 20.06,-53.12 4.19,-92.51 z m -237.3,476.33 c -28.35,-96.17 -89.52,-151.25 -123.71,-175.84 -17.74,103.69 -75.25,160.22 -129.54,178.13 -51.64,17.03 -102.88,0.95 -127.37,-39.85 -30.06,-50.23 1.72,-93.35 27.26,-128.1 33.8,-45.86 50.89,-73.91 9.83,-116.67 -40.54,-42.28 -52.25,-88.08 -49.32,-129.58 -24.5,-7.82 -58.23,-34.34 -61.29,-97.08 -2.3,-47.46 24.72,-108.58 68.75,-155.75 43.75,-46.75 98.16,-73.09 153.22,-74.22 44.24,-0.88 73,14.86 94.97,52.43 6.45,-0.85 13.23,-1.42 20.22,-1.81 63.41,-3.51 148.77,18.91 204.09,90.74 16.94,-0.07 35.03,2.08 53.91,6.88 62.96,15.86 115.29,54.92 133.32,99.38 6.67,16.58 10.07,32.28 11.09,46.94 3.11,44.69 -15.43,79.26 -27.17,96.42 5.85,12.02 9.62,24.49 10.52,37.36 0.08,1.1 0.16,2.2 0.13,3.3 1.48,44.31 -10.07,78.59 -34.31,101.93 -14.18,13.61 -30.41,21.06 -44.85,25.18 29.83,42.73 57.87,98.41 62.19,160.36 0.39,5.59 0.58,11.29 0.57,16.9 -0.23,67.28 -37.62,116.2 -95.49,124.44 -55.98,8 -129.06,-26.61 -157.02,-121.49"
         style="fill:#100f0d;fill-opacity:1;fill-rule:nonzero;stroke:none"
         id="path32" />
      <path
         d="m 3272.12,3392.65 c 10.57,-0.83 29.66,-4.47 44.22,-18.51 15.78,-15.14 23.22,-39.31 22.17,-71.82 -1.42,-40.39 -55.62,-88.95 -120.93,-108.46 -19.97,-6.02 -61.59,-14.96 -95.77,0.85 l -0.48,0.34 -0.68,0.25 c -11.36,5.4 -21.81,13.64 -30.4,25.67 -11.85,16.87 -10.53,38.73 3.59,60.1 23.87,36.13 83.2,64.88 162.02,47.96 10.76,-2.35 21.47,4.52 23.82,15.28 2.33,10.57 -4.52,21.47 -15.39,23.73 -4.14,0.99 -8.21,1.57 -12.28,2.26 6.27,6.47 13.01,14.02 20.11,22.35"
         style="fill:#ffffff;fill-opacity:1;fill-rule:nonzero;stroke:none"
         id="path34" />
      <path
         d="m 3342.61,3224.55 c 10.23,-20.05 20.06,-53.12 4.19,-92.51 -13.2,-32.56 -55.81,-62.98 -106.01,-75.62 -39.7,-10.07 -76.04,-6.54 -94.9,9.01 -30.61,25.48 -26.43,63.89 -20.68,85.95 30.29,-8.33 65.85,-7.29 103.83,4.09 41.26,12.47 84.3,37.44 113.57,69.08"
         style="fill:#ffffff;fill-opacity:1;fill-rule:nonzero;stroke:none"
         id="path36" />
      <path
         d="m 3260.86,3690.25 c 37.61,-5.42 61.01,-37.92 61.15,-84.85 0.18,-115.59 -104.97,-214.83 -123.69,-231.67 -68.19,-3.27 -115.53,-36.66 -137.83,-70.6 -23.08,-34.88 -24.18,-75.2 -2.82,-105.25 8.48,-12.02 18.82,-22.06 30.79,-30.02 -8.99,-29.74 -18.97,-91 31.92,-133.23 8.44,-7 18.6,-12.32 29.85,-16.32 -45.93,-46.32 -110,-60.9 -155.43,-58.34 -90.07,4.96 -116.15,49.49 -117.39,51.87 -5.14,9.58 -17.11,13.33 -26.88,8.29 -9.78,-5.03 -13.62,-17.09 -8.59,-26.86 1.15,-2.19 22.91,-42.4 88.18,-62.48 -12.55,-16.07 -27.59,-21.84 -52.01,-21.34 -44.15,0.87 -88.44,22.69 -124.73,61.51 -35.93,38.39 -59.86,90.48 -58.15,126.54 l 0.22,3.2 c 2.58,37.01 18.36,50.64 28.54,55.65 9.4,-31.83 25.77,-58.83 40.5,-76.1 7.13,-8.41 19.8,-9.39 28.22,-2.27 8.41,7.14 9.39,19.8 2.16,28.22 -3.52,4.16 -85.76,102.91 -0.06,192.07 66.47,69.26 24.34,126.42 -6.44,168.16 -26.56,36.03 -40.78,57.77 -25.15,83.75 14.87,24.82 46.46,33.65 80.56,22.45 47.24,-15.51 97.48,-69.93 106.38,-173.9 l 0.01,-1.3 c 1.98,-23.4 1.78,-49.25 -0.9,-77.73 -1.28,-11.24 6.98,-20.74 18.03,-21.81 10.95,-1.06 20.74,6.98 21.8,18.03 0.43,4.79 0.86,9.47 1.18,14.05 1.43,20.55 1.46,39.7 0.52,57.81 32.12,19.31 119.46,81.8 157.01,209.3 21.36,72.09 73.55,98.83 113.05,93.17"
         style="fill:#ffffff;fill-opacity:1;fill-rule:nonzero;stroke:none"
         id="path38" />
    </g>
  </g>
</svg>
