<?xml version="1.0" encoding="UTF-8" standalone="no"?>
<!-- Created with Inkscape (http://www.inkscape.org/) -->

<svg
   version="1.1"
   id="svg2"
   width="285.7536"
   height="303.37332"
   viewBox="0 0 285.75361 303.37333"
   xmlns="http://www.w3.org/2000/svg"
   xmlns:svg="http://www.w3.org/2000/svg">
  <defs
     id="defs6" />
  <g
     id="g10"
     transform="matrix(1.3333333,0,0,-1.3333333,-489.75204,800.61731)">
    <g
       id="g12"
       transform="scale(0.1)">
      <path
         d="m 4465.79,5120.7 c 0,-16.6 0,-32.16 -1.03,-48.76 -10.38,-176.33 -73.65,-328.81 -164.93,-415.94 -56.01,22.82 -117.21,35.27 -180.48,35.27 -9.34,0 -19.71,0 -29.04,-1.04 -52.9,-3.11 -101.66,-16.59 -147.29,-38.38 -101.65,94.4 -169.08,268.65 -169.08,468.85 0,301.84 154.55,546.63 345.41,546.63 24.9,0 48.75,-4.15 71.57,-12.45 147.29,-48.75 260.36,-244.79 273.84,-485.44 1.03,-15.55 1.03,-32.15 1.03,-48.74"
         style="fill:#ffffff;fill-opacity:1;fill-rule:nonzero;stroke:none"
         id="path90" />
      <path
         d="m 4465.79,5120.7 h -37.31 c 0,-16.63 -0.02,-31.3 -0.96,-46.44 l -0.01,-0.13 c -4.95,-84.35 -22.6,-162.74 -49.5,-229.71 -26.86,-66.99 -63.03,-122.43 -103.94,-161.42 l 25.76,-27 14.08,34.56 c -60.41,24.61 -126.39,38.02 -194.56,38.02 -9.4,-0.02 -20.88,0.07 -33.17,-1.26 l 4.13,-37.09 -2.19,37.25 c -57.89,-3.38 -111.64,-18.28 -161.18,-41.95 l 16.08,-33.68 25.39,27.34 c -45.48,42.15 -85.15,104.36 -113.03,180.29 -27.93,75.89 -44.14,165.31 -44.13,261.22 -0.09,144.54 37.33,274.91 95.37,366.58 28.96,45.87 62.9,81.95 99,106.08 36.2,24.16 74.09,36.61 113.73,36.66 20.75,-0.01 40.09,-3.41 58.82,-10.21 l 1.03,-0.35 c 31.06,-10.28 61.25,-28.65 89.49,-54.62 42.35,-38.88 79.93,-94.92 107.81,-163.05 27.91,-68.1 46.18,-148.13 51,-234.43 l 0.03,-0.39 c 0.92,-13.81 0.96,-29.69 0.95,-46.27 h 37.31 37.32 c -0.01,16.6 0.02,33.92 -1.12,51.22 l -37.23,-2.48 37.25,2.09 c -7.08,125.58 -39.93,240 -91.54,331.02 -25.84,45.49 -56.43,85.17 -91.26,117.22 -34.81,32.02 -73.98,56.44 -116.56,70.54 l -11.73,-35.43 12.75,35.07 c -26.91,9.8 -55.28,14.71 -84.32,14.7 -55.79,0.05 -108.79,-18.1 -155.25,-49.27 -69.81,-46.89 -126.05,-122.15 -165.51,-214.43 -39.4,-92.38 -61.94,-202.28 -61.96,-320.25 0.01,-104.29 17.51,-202.1 48.71,-286.98 31.25,-84.84 76.11,-156.96 132.28,-209.21 11.23,-10.43 27.64,-12.93 41.47,-6.33 41.74,19.89 85.49,31.96 133.4,34.8 l 1.94,0.16 c 6.38,0.74 15.64,0.84 24.92,0.81 58.37,0 114.8,-11.48 166.4,-32.5 13.66,-5.56 29.18,-2.62 39.85,7.56 50.36,48.14 91.48,112.5 121.66,187.61 30.15,75.13 49.32,161.15 54.75,253.13 l -0.01,-0.13 c 1.12,18.07 1.1,34.5 1.11,51.08 h -37.32"
         style="fill:#211d1d;fill-opacity:1;fill-rule:nonzero;stroke:none"
         id="path92" />
      <path
         d="m 4473.05,5120.7 c 0,-16.6 0,-32.16 -1.03,-48.76 -10.37,-176.33 -73.65,-328.81 -164.93,-415.94 -56,22.82 -117.2,35.27 -180.48,35.27 -9.33,0 -19.71,0 -29.04,-1.04 -48.75,78.83 -89.21,191.9 -103.73,323.62 l 197.08,106.85 -197.08,107.87 c 23.86,214.71 115.14,382.75 204.34,426.31 147.29,-48.75 260.36,-244.79 273.84,-485.44 1.03,-15.55 1.03,-32.15 1.03,-48.74"
         style="fill:#211d1d;fill-opacity:1;fill-rule:nonzero;stroke:none"
         id="path94" />
      <path
         d="m 4313.91,4690.56 c -60.41,24.61 -126.39,38.02 -194.56,38.02 -9.39,-0.02 -20.88,0.07 -33.17,-1.26 l 4.13,-37.09 -2.19,37.25 c -57.89,-3.38 -111.64,-18.28 -161.18,-41.95 l 16.08,-33.68 -15.25,34.06 c -118.88,-53.27 -208.93,-155.82 -248.48,-278.85 -6.3,-19.63 4.5,-40.64 24.12,-46.94 19.62,-6.3 40.64,4.5 46.94,24.12 33.06,103.09 108.96,189.32 207.91,233.55 l 0.83,0.39 c 41.74,19.89 85.49,31.96 133.41,34.8 l 1.93,0.16 c 6.38,0.74 15.64,0.84 24.92,0.81 58.37,0 114.79,-11.48 166.4,-32.51 19.09,-7.77 40.86,1.4 48.64,20.48 7.78,19.09 -1.39,40.86 -20.48,48.64"
         style="fill:#211d1d;fill-opacity:1;fill-rule:nonzero;stroke:none"
         id="path96" />
      <path
         d="m 5716.22,5120.7 c 0,-200.2 -68.46,-375.49 -170.11,-468.85 -1.04,1.04 -2.07,2.08 -4.15,2.08 -51.86,23.85 -109.95,37.34 -172.18,37.34 -12.45,0 -23.86,0 -36.31,-2.08 -49.79,-3.11 -98.54,-14.52 -143.15,-33.19 -91.27,87.13 -154.55,239.61 -164.91,415.94 -1.04,16.6 -1.04,32.16 -1.04,48.76 0,16.59 0,33.19 1.04,48.74 13.48,240.65 126.54,436.69 273.83,485.44 22.82,8.3 46.68,12.45 71.57,12.45 190.86,0 345.41,-244.79 345.41,-546.63"
         style="fill:#ffffff;fill-opacity:1;fill-rule:nonzero;stroke:none"
         id="path98" />
      <path
         d="m 5716.22,5120.7 h -37.32 c 0.02,-95.84 -16.44,-185.51 -44.61,-261.53 -28.12,-76.06 -68.06,-138.27 -113.43,-179.84 l 25.25,-27.48 26.45,26.32 c -0.54,0.45 -3.2,3.59 -8.92,7.1 -2.83,1.71 -6.42,3.35 -10.24,4.41 -3.83,1.08 -7.82,1.57 -11.44,1.56 v -37.31 l 15.59,33.9 c -56.61,26.05 -120.14,40.76 -187.77,40.75 -12.36,-0.02 -26.27,0.1 -42.45,-2.58 l 6.14,-36.81 -2.33,37.24 c -53.94,-3.37 -106.68,-15.69 -155.22,-36 l 14.4,-34.43 25.77,27 c -40.91,38.99 -77.08,94.43 -103.94,161.42 -26.9,66.97 -44.55,145.36 -49.5,229.71 l -0.01,0.14 c -0.95,15.13 -0.97,29.8 -0.96,46.43 -0.01,16.58 0.02,32.45 0.95,46.25 l 0.03,0.41 c 6.4,115.06 36.82,218.99 81.93,298.34 22.53,39.69 48.66,73.2 76.88,99.14 28.24,25.97 58.43,44.34 89.5,54.62 l 1.03,0.36 c 18.72,6.79 38.06,10.19 58.81,10.2 39.64,-0.05 77.53,-12.5 113.73,-36.66 54.17,-36.11 103.39,-99.5 138.39,-181.71 35.07,-82.11 56,-182.55 55.97,-290.95 h 37.32 37.31 c -0.09,157.29 -39.95,300.24 -106.9,406.43 -33.54,53.06 -74.02,97.05 -120.58,128.25 -46.45,31.17 -99.45,49.32 -155.24,49.27 -29.04,0.01 -57.41,-4.9 -84.32,-14.7 l 12.75,-35.07 -11.72,35.43 c -42.59,-14.1 -81.76,-38.52 -116.57,-70.54 -52.22,-48.1 -94.99,-113.25 -126.34,-189.68 -31.32,-76.47 -51.17,-164.38 -56.46,-258.56 l 37.26,-2.09 -37.24,2.49 c -1.15,-17.3 -1.11,-34.63 -1.12,-51.23 0,-16.58 -0.02,-33.02 1.11,-51.09 l -0.01,0.14 c 5.42,-91.98 24.59,-178 54.75,-253.13 30.18,-75.11 71.29,-139.47 121.66,-187.61 10.75,-10.26 26.46,-13.16 40.17,-7.43 40.66,17.03 85.43,27.53 131.06,30.37 1.55,0.1 2.28,0.18 3.81,0.44 8.72,1.46 17.64,1.59 30.18,1.56 56.83,-0.01 109.47,-12.26 156.58,-33.92 4.96,-2.28 10.15,-3.42 15.6,-3.42 v 32.22 l -8.68,-31.01 c 3.01,-0.86 6.1,-1.21 8.68,-1.21 v 32.22 l -8.68,-31.01 8.79,31.42 -19.67,-26.06 c 2.26,-1.74 6.31,-4.12 10.88,-5.36 l 8.79,31.42 -19.67,-26.06 17.75,23.51 -20.12,-21.51 c 0.44,-0.42 1.22,-1.12 2.37,-2 l 17.75,23.51 -20.12,-21.51 15.01,16.05 -15.44,-15.65 0.43,-0.4 15.01,16.05 -15.44,-15.65 5.08,5.15 -5.11,-5.11 0.03,-0.04 5.08,5.15 -5.11,-5.11 0.08,-0.08 c 14.13,-14.21 36.93,-14.73 51.7,-1.17 56.28,51.79 101.4,123.91 132.92,208.88 31.47,85.01 49.25,183.09 49.26,287.45 h -37.31"
         style="fill:#211d1d;fill-opacity:1;fill-rule:nonzero;stroke:none"
         id="path100" />
      <path
         d="m 5810.22,4406.73 c -29.14,91.69 -86.91,171.99 -163.51,229.58 -76.57,57.58 -172.35,92.43 -276.64,92.41 -20.61,0 -37.32,-16.71 -37.32,-37.32 0,-20.61 16.71,-37.31 37.32,-37.31 87.59,-0.02 167.4,-29.08 231.81,-77.44 64.37,-48.35 112.95,-116.04 137.22,-192.51 6.23,-19.64 27.21,-30.51 46.85,-24.27 19.65,6.24 30.51,27.22 24.27,46.86"
         style="fill:#211d1d;fill-opacity:1;fill-rule:nonzero;stroke:none"
         id="path102" />
      <path
         d="m 4749.34,3766.65 c -297.37,0 -579.96,137.36 -775.31,376.89 -73.98,90.69 -60.43,224.17 30.27,298.15 90.74,73.88 224.27,60.43 298.15,-30.26 114.54,-140.41 277.41,-220.96 446.89,-220.96 169.49,0 332.35,80.55 446.9,220.96 73.98,90.59 207.46,104.14 298.15,30.26 90.69,-73.98 104.25,-207.46 30.27,-298.15 -195.36,-239.53 -477.94,-376.89 -775.32,-376.89"
         style="fill:#fab933;fill-opacity:1;fill-rule:nonzero;stroke:none"
         id="path104" />
      <path
         d="m 4749.34,3766.65 v 37.31 c -285.79,0.03 -557.7,131.89 -746.39,363.17 -26.51,32.52 -39.29,71.35 -39.32,110.23 0,25.35 5.5,50.62 16.26,73.8 10.78,23.19 26.75,44.28 47.99,61.62 l -0.03,-0.02 c 32.56,26.48 71.44,39.26 110.35,39.29 25.36,0 50.62,-5.49 73.78,-16.24 23.17,-10.77 44.24,-26.72 61.54,-47.95 l 0.02,-0.02 c 120.98,-148.4 294.35,-234.69 475.8,-234.69 181.45,0 354.82,86.29 475.81,234.69 l -0.02,-0.01 c 17.34,21.21 38.44,37.17 61.64,47.94 23.18,10.75 48.46,16.25 73.83,16.25 38.88,-0.03 77.7,-12.79 110.22,-39.26 l -0.02,0.02 c 21.24,-17.33 37.21,-38.43 47.99,-61.62 10.76,-23.18 16.26,-48.45 16.26,-73.8 -0.04,-38.88 -12.81,-77.71 -39.31,-110.24 -188.7,-231.27 -460.61,-363.13 -746.4,-363.16 v -37.31 -37.32 c 308.96,-0.03 602.21,142.83 804.23,390.63 37.66,46.15 56.13,102.1 56.1,157.4 0,36.12 -7.81,72.07 -23.19,105.22 -15.38,33.14 -38.39,63.47 -68.5,88.03 l -0.03,0.02 c -46.15,37.61 -102.08,56.05 -157.35,56.01 -36.12,0 -72.08,-7.8 -105.23,-23.17 -33.14,-15.36 -63.48,-38.35 -88.04,-68.44 l -0.01,-0.01 c -108.1,-132.42 -260.45,-207.23 -417.98,-207.24 -157.52,0.01 -309.88,74.82 -417.98,207.24 l 0.02,-0.02 c -24.53,30.12 -54.85,53.13 -87.98,68.5 -33.14,15.38 -69.09,23.18 -105.2,23.18 -55.31,0.03 -111.28,-18.43 -157.46,-56.05 l -0.03,-0.02 c -30.12,-24.56 -53.13,-54.89 -68.51,-88.03 -15.38,-33.14 -23.2,-69.1 -23.2,-105.22 -0.03,-55.3 18.44,-111.25 56.11,-157.4 202.02,-247.8 495.27,-390.66 804.23,-390.63 v 37.32"
         style="fill:#211d1d;fill-opacity:1;fill-rule:nonzero;stroke:none"
         id="path106" />
      <path
         d="m 4109.33,4253.9 c 77.76,-95.35 173.68,-173.49 282.28,-227.84 108.58,-54.35 229.9,-84.84 357.73,-84.83 127.83,-0.01 249.15,30.48 357.73,84.83 108.6,54.35 204.52,132.49 282.28,227.84 13.02,15.97 10.63,39.47 -5.34,52.5 -15.97,13.02 -39.47,10.63 -52.5,-5.34 -71.39,-87.54 -159.13,-158.87 -257.84,-208.26 -98.73,-49.39 -208.37,-76.93 -324.33,-76.94 -115.96,0.01 -225.6,27.55 -324.34,76.94 -98.7,49.39 -186.44,120.72 -257.83,208.26 -13.03,15.97 -36.54,18.36 -52.5,5.34 -15.97,-13.03 -18.36,-36.53 -5.34,-52.5"
         style="fill:#211d1d;fill-opacity:1;fill-rule:nonzero;stroke:none"
         id="path108" />
      <path
         d="m 5716.22,5120.7 c 0,-16.6 0,-32.16 -1.03,-48.76 -10.38,-177.37 -73.65,-329.85 -165.97,-418.01 -51.86,23.85 -109.95,37.34 -172.18,37.34 -12.45,0 -23.86,0 -36.31,-2.08 -48.75,78.83 -88.16,192.94 -102.69,324.66 l 197.08,106.85 -197.08,107.87 c 22.82,214.71 114.1,382.75 203.31,426.31 147.29,-48.75 260.35,-244.79 273.84,-485.44 1.03,-15.55 1.03,-32.15 1.03,-48.74"
         style="fill:#211d1d;fill-opacity:1;fill-rule:nonzero;stroke:none"
         id="path110" />
      <path
         d="m 4558.63,5764.72 c -23.04,33.65 -48.77,66.24 -79.39,95.04 -95.53,89.87 -221.67,144.9 -359.58,144.87 -90.64,0.01 -176.25,-23.86 -251.22,-65.81 -75,-41.95 -139.47,-101.88 -188.8,-174.14 -11.62,-17.02 -7.24,-40.24 9.79,-51.86 17.02,-11.61 40.24,-7.23 51.85,9.79 43.09,63.13 99.14,115.04 163.59,151.07 64.48,36.04 137.26,56.3 214.79,56.32 117.88,-0.04 225.44,-46.69 308.47,-124.62 25.29,-23.77 47.84,-52.02 68.91,-82.81 11.63,-17.01 34.86,-21.36 51.86,-9.72 17.01,11.64 21.37,34.86 9.73,51.87"
         style="fill:#211d1d;fill-opacity:1;fill-rule:nonzero;stroke:none"
         id="path112" />
      <path
         d="m 4992.4,5722.57 c 21.06,30.79 43.61,59.04 68.91,82.81 83.03,77.93 190.59,124.58 308.47,124.62 77.52,-0.02 150.31,-20.28 214.79,-56.32 64.45,-36.03 120.5,-87.94 163.59,-151.07 11.61,-17.02 34.83,-21.4 51.85,-9.79 17.02,11.62 21.4,34.84 9.79,51.86 -49.33,72.26 -113.8,132.19 -188.8,174.14 -74.98,41.95 -160.59,65.82 -251.22,65.81 -137.91,0.03 -264.05,-55 -359.58,-144.87 -30.62,-28.8 -56.35,-61.39 -79.39,-95.04 -11.64,-17.01 -7.29,-40.23 9.72,-51.87 17.01,-11.64 40.23,-7.29 51.87,9.72"
         style="fill:#211d1d;fill-opacity:1;fill-rule:nonzero;stroke:none"
         id="path114" />
    </g>
  </g>
</svg>
