<svg width="1532" height="540" viewBox="0 0 1532 540" fill="none" xmlns="http://www.w3.org/2000/svg">
<path d="M1393 218.917V218.728C1393.05 212.416 1395.75 206.35 1400.58 201.87V201.869C1405.35 197.437 1411.82 194.918 1418.6 194.918H1430H1430.68L1430.93 194.292C1436.16 181.35 1449.57 172 1465.4 172C1482.14 172 1496.17 182.459 1500.68 196.559L1500.82 196.99L1501.23 197.171C1503.88 198.331 1506.31 199.91 1508.41 201.866V201.869C1513.3 206.394 1516 212.536 1516 218.917C1516 225.297 1513.3 231.44 1508.41 235.964V235.966C1503.58 240.454 1497.05 243.958 1490.39 243.958H1418.6C1411.94 243.958 1405.41 240.454 1400.58 235.966V235.964C1395.7 231.439 1393 225.297 1393 218.917Z" fill="white" stroke="#1D1D1D" stroke-width="2"/>
<path d="M78.9998 404.902V404.846C78.9844 403.071 78.2438 401.363 76.9087 400.098L76.9073 400.097C75.5898 398.844 73.7953 398.127 71.9125 398.127H68.4466H67.7663L67.5164 397.495C66.0318 393.734 62.2125 391 57.6862 391C52.8997 391 48.9044 394.059 47.6253 398.152L47.491 398.582L47.08 398.767C46.3456 399.096 45.6721 399.543 45.094 400.095L45.0913 400.098C43.7421 401.376 43 403.107 43 404.902C43 406.696 43.7421 408.427 45.0913 409.705L45.0929 409.707C46.4828 411.03 48.3052 412 50.0875 412H71.9123C73.6944 412 75.5169 411.03 76.9068 409.707L76.9084 409.706C78.2576 408.427 78.9998 406.696 78.9998 404.902Z" fill="white" stroke="#1D1D1D" stroke-width="2"/>
<path d="M583 370.803V370.687C582.967 366.865 581.351 363.19 578.447 360.474L578.445 360.473C575.582 357.785 571.689 356.254 567.612 356.254H560.589H559.912L559.661 355.625C556.499 347.722 548.381 342 538.785 342C528.639 342 520.143 348.4 517.418 357.009L517.282 357.44L516.869 357.622C515.278 358.327 513.815 359.285 512.556 360.471L512.553 360.473C509.619 363.217 508 366.939 508 370.803C508 374.666 509.619 378.388 512.553 381.132L512.555 381.133C515.484 383.885 519.419 386 523.388 386H567.612C571.581 386 575.515 383.885 578.445 381.133L578.446 381.132C581.38 378.388 583 374.666 583 370.803Z" fill="white" stroke="#1D1D1D" stroke-width="2"/>
<path d="M320.35 153.132V152.99C320.311 148.298 318.326 143.786 314.763 140.454L314.762 140.453C311.25 137.156 306.479 135.281 301.483 135.281H292.969H292.292L292.04 134.652C288.174 124.987 278.253 118 266.535 118C254.145 118 243.761 125.816 240.428 136.345L240.292 136.775L239.879 136.957C237.929 137.821 236.134 138.996 234.59 140.451L234.588 140.453C230.989 143.819 229 148.388 229 153.132C229 157.875 230.989 162.443 234.588 165.808L234.589 165.81C238.164 169.168 242.984 171.767 247.868 171.767H301.482C306.366 171.767 311.186 169.168 314.761 165.81L314.763 165.808C318.362 162.443 320.35 157.875 320.35 153.132Z" fill="white" stroke="black" stroke-width="2"/>
<path d="M1138.35 80.1312V79.9896C1138.32 75.297 1136.33 70.7864 1132.77 67.4545V67.4531C1129.25 64.156 1124.48 62.2808 1119.49 62.2808H1110.97H1110.3L1110.04 61.6522C1106.18 51.9874 1096.26 45 1084.54 45C1072.15 45 1061.77 52.8158 1058.43 63.345L1058.3 63.7751L1057.88 63.9577C1055.93 64.821 1054.14 65.9963 1052.59 67.451V67.4536C1048.99 70.8193 1047 75.3874 1047 80.1312C1047 84.8749 1048.99 89.4431 1052.59 92.8088V92.8103C1056.17 96.1687 1060.99 98.7679 1065.87 98.7679H1119.49C1124.37 98.7679 1129.19 96.1687 1132.77 92.8103V92.8088C1136.37 89.443 1138.35 84.8748 1138.35 80.1312Z" fill="white" stroke="black" stroke-width="2"/>
</svg>